<svg width="30" height="30" fill="none" xmlns="http://www.w3.org/2000/svg"><path d="M27.982 9.644c-.061-1.381-.285-2.331-.605-3.154a6.346 6.346 0 00-1.503-2.306 6.4 6.4 0 00-2.301-1.498c-.828-.32-1.773-.544-3.154-.605C19.027 2.015 18.585 2 15.055 2s-3.971.015-5.358.076c-1.382.061-2.331.285-3.154.605a6.344 6.344 0 00-2.306 1.503 6.401 6.401 0 00-1.499 2.3c-.32.829-.543 1.773-.604 3.155-.066 1.392-.081 1.834-.081 5.364s.015 3.971.076 5.358c.06 1.381.284 2.331.604 3.154a6.41 6.41 0 001.504 2.306 6.399 6.399 0 002.3 1.498c.829.32 1.773.544 3.155.605 1.386.06 1.828.076 5.358.076 3.53 0 3.972-.015 5.359-.076 1.381-.061 2.331-.284 3.154-.604a6.65 6.65 0 003.804-3.805c.32-.828.544-1.773.605-3.154.06-1.387.076-1.828.076-5.358 0-3.53-.005-3.972-.066-5.359zM25.64 20.26c-.056 1.27-.269 1.956-.447 2.413a4.313 4.313 0 01-2.468 2.469c-.457.177-1.148.39-2.413.446-1.371.061-1.782.077-5.252.077-3.469 0-3.885-.016-5.251-.077-1.27-.055-1.956-.269-2.413-.446a4 4 0 01-1.493-.97 4.042 4.042 0 01-.97-1.494c-.178-.457-.391-1.148-.447-2.412-.061-1.372-.076-1.783-.076-5.252 0-3.47.015-3.886.076-5.252.056-1.27.269-1.956.447-2.413a3.952 3.952 0 01.975-1.493c.421-.432.93-.762 1.493-.97.457-.178 1.148-.391 2.413-.447 1.371-.06 1.783-.076 5.251-.076 3.475 0 3.886.015 5.252.076 1.27.056 1.956.27 2.413.447a3.998 3.998 0 011.493.97c.432.422.762.93.97 1.493.178.457.391 1.148.447 2.413.061 1.371.076 1.783.076 5.252s-.015 3.875-.076 5.246z" fill="url(#paint0_linear_212_97)"/><path d="M15.055 8.324a6.68 6.68 0 00-6.679 6.679 6.68 6.68 0 006.679 6.679 6.68 6.68 0 006.68-6.68 6.68 6.68 0 00-6.68-6.678zm0 11.011a4.333 4.333 0 11.001-8.666 4.333 4.333 0 01-.001 8.666z" fill="url(#paint1_linear_212_97)"/><path d="M23.558 8.06a1.56 1.56 0 11-3.119 0 1.56 1.56 0 013.12 0z" fill="url(#paint2_linear_212_97)"/><defs><linearGradient id="paint0_linear_212_97" x1="-.439" y1="-9.143" x2="29.874" y2="-7.926" gradientUnits="userSpaceOnUse"><stop stop-color="#00B292"/><stop offset=".291" stop-color="#2DFFD9"/><stop offset=".636" stop-color="#54FFE0"/><stop offset=".978" stop-color="#03776F"/></linearGradient><linearGradient id="paint1_linear_212_97" x1="7.096" y1="2.599" x2="22.672" y2="3.224" gradientUnits="userSpaceOnUse"><stop stop-color="#00B292"/><stop offset=".291" stop-color="#2DFFD9"/><stop offset=".636" stop-color="#54FFE0"/><stop offset=".978" stop-color="#03776F"/></linearGradient><linearGradient id="paint2_linear_212_97" x1="20.14" y1="5.164" x2="23.777" y2="5.31" gradientUnits="userSpaceOnUse"><stop stop-color="#00B292"/><stop offset=".291" stop-color="#2DFFD9"/><stop offset=".636" stop-color="#54FFE0"/><stop offset=".978" stop-color="#03776F"/></linearGradient></defs></svg>