<svg width="46" height="30" fill="none" xmlns="http://www.w3.org/2000/svg"><path d="M36.188 3H9.811C8.26 3 7 4.295 7 5.875v17.25C7 24.715 8.268 26 9.813 26h26.374C37.728 26 39 24.72 39 23.125V5.875C39 4.297 37.746 3 36.187 3zm-.394 1.917L24.989 15.903a2.766 2.766 0 0 1-3.98-.002L10.206 4.918h25.588zM8.875 22.735V6.266l8.102 8.24-8.102 8.229zm1.333 1.348 8.099-8.226 1.378 1.402A4.606 4.606 0 0 0 23 18.662c1.252 0 2.43-.498 3.313-1.401l1.38-1.404 8.1 8.226H10.207zm26.917-1.348-8.102-8.23 8.102-8.239v16.469z" fill="url(#a)"/><defs><linearGradient id="a" x1="3.933" y1="-6.857" x2="41.192" y2="-4.775" gradientUnits="userSpaceOnUse"><stop stop-color="#00B292"/><stop offset=".291" stop-color="#2DFFD9"/><stop offset=".636" stop-color="#54FFE0"/><stop offset=".978" stop-color="#03776F"/></linearGradient></defs></svg>