<svg width="210" height="58" viewBox="0 0 210 58" fill="none" xmlns="http://www.w3.org/2000/svg">
<g filter="url(#filter0_b_212_78)">
<path d="M196.266 57H9C4.58172 57 1 53.4183 1 49V15.7833C1 13.9808 1.60877 12.231 2.72763 10.8177L8.09779 4.03438C9.61515 2.11771 11.9256 1 14.3701 1H201C205.418 1 209 4.58172 209 9V42.0377C209 43.6421 208.518 45.2094 207.615 46.5362L202.881 53.4985C201.392 55.6889 198.914 57 196.266 57Z" fill="url(#paint0_linear_212_78)"/>
<path d="M196.266 57H9C4.58172 57 1 53.4183 1 49V15.7833C1 13.9808 1.60877 12.231 2.72763 10.8177L8.09779 4.03438C9.61515 2.11771 11.9256 1 14.3701 1H201C205.418 1 209 4.58172 209 9V42.0377C209 43.6421 208.518 45.2094 207.615 46.5362L202.881 53.4985C201.392 55.6889 198.914 57 196.266 57Z" stroke="url(#paint1_radial_212_78)" stroke-width="2"/>
</g>
<defs>
<filter id="filter0_b_212_78" x="-50" y="-50" width="310" height="158" filterUnits="userSpaceOnUse" color-interpolation-filters="sRGB">
<feFlood flood-opacity="0" result="BackgroundImageFix"/>
<feGaussianBlur in="BackgroundImageFix" stdDeviation="25"/>
<feComposite in2="SourceAlpha" operator="in" result="effect1_backgroundBlur_212_78"/>
<feBlend mode="normal" in="SourceGraphic" in2="effect1_backgroundBlur_212_78" result="shape"/>
</filter>
<linearGradient id="paint0_linear_212_78" x1="-6.5" y1="-4" x2="216.435" y2="4.16462" gradientUnits="userSpaceOnUse">
<stop stop-color="#05DAC9" stop-opacity="0.41"/>
<stop offset="0.500018" stop-color="#008FA3" stop-opacity="0.2"/>
<stop offset="0.978018" stop-color="#00AEA4" stop-opacity="0.38"/>
</linearGradient>
<radialGradient id="paint1_radial_212_78" cx="0" cy="0" r="1" gradientUnits="userSpaceOnUse" gradientTransform="translate(0.999999 29.0007) scale(241.383 1304.25)">
<stop stop-color="#00D6DA"/>
<stop offset="0.498842" stop-color="#00D6DA" stop-opacity="0.41"/>
<stop offset="1" stop-color="#00D6DA"/>
</radialGradient>
</defs>
</svg>
