<svg width="210" height="58" fill="none" xmlns="http://www.w3.org/2000/svg"><g filter="url(#filter0_b_212_78)"><path d="M196.266 57H9a8 8 0 01-8-8V15.783a8 8 0 011.728-4.965l5.37-6.784A8 8 0 0114.37 1H201a8 8 0 018 8v33.038a7.994 7.994 0 01-1.385 4.498l-4.734 6.962A8 8 0 01196.266 57z" fill="url(#paint0_linear_212_78)"/><path d="M196.266 57H9a8 8 0 01-8-8V15.783a8 8 0 011.728-4.965l5.37-6.784A8 8 0 0114.37 1H201a8 8 0 018 8v33.038a7.994 7.994 0 01-1.385 4.498l-4.734 6.962A8 8 0 01196.266 57z" stroke="url(#paint1_radial_212_78)" stroke-width="2"/></g><defs><radialGradient id="paint1_radial_212_78" cx="0" cy="0" r="1" gradientUnits="userSpaceOnUse" gradientTransform="matrix(241.383 0 0 1304.25 1 29)"><stop stop-color="#00D6DA"/><stop offset=".499" stop-color="#00D6DA" stop-opacity=".41"/><stop offset="1" stop-color="#00D6DA"/></radialGradient><linearGradient id="paint0_linear_212_78" x1="-6.5" y1="-4" x2="216.435" y2="4.165" gradientUnits="userSpaceOnUse"><stop stop-color="#05DAC9" stop-opacity=".41"/><stop offset=".5" stop-color="#008FA3" stop-opacity=".2"/><stop offset=".978" stop-color="#00AEA4" stop-opacity=".38"/></linearGradient><filter id="filter0_b_212_78" x="-50" y="-50" width="310" height="158" filterUnits="userSpaceOnUse" color-interpolation-filters="sRGB"><feFlood flood-opacity="0" result="BackgroundImageFix"/><feGaussianBlur in="BackgroundImageFix" stdDeviation="25"/><feComposite in2="SourceAlpha" operator="in" result="effect1_backgroundBlur_212_78"/><feBlend in="SourceGraphic" in2="effect1_backgroundBlur_212_78" result="shape"/></filter></defs></svg>